<?xml version="1.0" encoding="UTF-8" standalone="no"?>
<svg width="33px" height="50px" viewBox="0 0 33 50" version="1.1" xmlns="http://www.w3.org/2000/svg" xmlns:xlink="http://www.w3.org/1999/xlink">
    <!-- Generator: Sketch 39.1 (31720) - http://www.bohemiancoding.com/sketch -->
    <title>Group 5</title>
    <desc>Created with Sketch.</desc>
    <defs></defs>
    <g id="Page-1" stroke="none" stroke-width="1" fill="none" fill-rule="evenodd">
        <g id="FirstPage" transform="translate(-293.000000, -450.000000)" fill="#2F2F33">
            <g id="Group-5" transform="translate(308.280054, 473.922999) rotate(-23.000000) translate(-308.280054, -473.922999) translate(287.780054, 450.422999)">
                <path d="M14.7246851,46.2325195 C21.3838366,45.1778136 26.2124714,40.1992838 26.0568092,34.8175499 C26.046068,34.4461943 26.0115946,34.0729189 25.9523527,33.6988804 C25.0345697,27.9042265 18.5197514,24.1207376 11.4010988,25.2482214 C4.28244614,26.3757052 -0.74435189,31.9872066 0.17343113,37.7818605 C1.09121415,43.5765144 7.60603246,47.3600034 14.7246851,46.2325195" id="Oval"></path>
                <path d="M22.8423865,1.6399343 C22.8423865,0.734223594 23.5685082,0 24.4782938,0 L24.4782938,0 C25.3817804,0 26.114201,0.730887467 26.114201,1.62616731 L26.114201,32.7921398 L26.114201,34.5819327 L25.6352843,35.9899591 L24.3178757,35.9899591 L22.8423865,35.9899591 L22.8423865,1.6399343 Z" id="Rectangle-13"></path>
                <path d="M39.9656421,21.266794 C40.7783353,20.4614085 42.2019145,17.8307604 38.1856935,11.7069358 C32.3516761,2.81138476 25.9148781,3.37396073 25.9148781,3.37396073 L24.2857755,12.1516189 C24.2857755,12.1516189 29.8383615,12.1966202 33.6309649,14.2988946 C37.2450385,16.3022083 40.8643366,20.2632798 39.9654367,21.266794 L39.9656421,21.266794 Z" id="Combined-Shape"></path>
            </g>
        </g>
    </g>
</svg>