<?xml version="1.0" encoding="UTF-8" standalone="no"?>
<svg width="43px" height="58px" viewBox="0 0 43 58" version="1.1" xmlns="http://www.w3.org/2000/svg" xmlns:xlink="http://www.w3.org/1999/xlink">
    <!-- Generator: Sketch 39.1 (31720) - http://www.bohemiancoding.com/sketch -->
    <title>Group 5</title>
    <desc>Created with Sketch.</desc>
    <defs></defs>
    <g id="Page-1" stroke="none" stroke-width="1" fill="none" fill-rule="evenodd">
        <g id="FirstPage" transform="translate(-1100.000000, -232.000000)" fill="#2F2F33">
            <g id="Group-5" transform="translate(1120.782706, 259.904027) rotate(-15.000000) translate(-1120.782706, -259.904027) translate(1096.282706, 232.404027)">
                <path d="M17.3125836,54.357995 C25.1420968,53.1179219 30.8193757,47.2644037 30.6363555,40.9368172 C30.6237265,40.500195 30.5831943,40.0613156 30.5135405,39.6215389 C29.434455,32.8084608 21.7746418,28.3600146 13.404869,29.6856564 C5.03509625,31.0112982 -0.875173508,37.6090343 0.203912064,44.4221125 C1.28299764,51.2351906 8.94281078,55.6836368 17.3125836,54.357995" id="Oval"></path>
                <path d="M26.8569904,1.92815665 C26.8569904,0.863265139 27.7107296,-2.84217094e-14 28.7804122,-2.84217094e-14 L28.7804122,-2.84217094e-14 C29.8426887,-2.84217094e-14 30.703834,0.85934268 30.703834,1.92516126 L30.703834,38.5554365 L30.703834,40.6597897 L30.1407465,42.3152801 L28.5918002,42.3152801 L26.8569904,42.3152801 L26.8569904,1.92815665 Z" id="Rectangle-13"></path>
                <path d="M46.9896989,25.0044837 C47.9452249,24.0575498 49.6190015,20.964559 44.8969201,13.7644577 C38.0375602,3.30549233 30.4694796,3.96694237 30.4694796,3.96694237 L28.5540583,14.2872949 C28.5540583,14.2872949 35.0825246,14.3402053 39.541687,16.8119594 C43.7909427,19.1673603 48.0463411,23.8245995 46.9894574,25.0044837 L46.9896989,25.0044837 Z" id="Combined-Shape"></path>
            </g>
        </g>
    </g>
</svg>