<?xml version="1.0" encoding="UTF-8" standalone="no"?>
<svg width="577px" height="171px" viewBox="0 0 577 171" version="1.1" xmlns="http://www.w3.org/2000/svg" xmlns:xlink="http://www.w3.org/1999/xlink">
    <!-- Generator: Sketch 39.1 (31720) - http://www.bohemiancoding.com/sketch -->
    <title>Group 4</title>
    <desc>Created with Sketch.</desc>
    <defs></defs>
    <g id="Page-1" stroke="none" stroke-width="1" fill="none" fill-rule="evenodd">
        <g id="FirstPage" transform="translate(-432.000000, -293.000000)">
            <g id="Group-4" transform="translate(432.000000, 293.000000)">
                <g id="Group" transform="translate(0.000000, 0.413930)" fill="#C2C2CC">
                    <rect id="Rectangle-13-Copy-6" x="0" y="0.55528184" width="32.3600006" height="169.298659" rx="5"></rect>
                    <rect id="Rectangle-13-Copy-10" x="34" y="0.55528184" width="32.3600006" height="169.298659" rx="5"></rect>
                    <rect id="Rectangle-13-Copy-9" x="68" y="0.55528184" width="32.3600006" height="169.298659" rx="5"></rect>
                    <rect id="Rectangle-13-Copy-8" x="102" y="0.55528184" width="32.3600006" height="169.298659" rx="5"></rect>
                    <rect id="Rectangle-13-Copy-7" x="136" y="0.55528184" width="32.3600006" height="169.298659" rx="5"></rect>
                    <rect id="Rectangle-13-Copy-6" x="170" y="0.55528184" width="32.3600006" height="169.298659" rx="5"></rect>
                    <rect id="Rectangle-13-Copy-10" x="204" y="0.55528184" width="32.3600006" height="169.298659" rx="5"></rect>
                    <rect id="Rectangle-13-Copy-9" x="238" y="0.55528184" width="32.3600006" height="169.298659" rx="5"></rect>
                    <rect id="Rectangle-13-Copy-8" x="272" y="0.55528184" width="32.3600006" height="169.298659" rx="5"></rect>
                    <rect id="Rectangle-13-Copy-7" x="306" y="0.55528184" width="32.3600006" height="169.298659" rx="5"></rect>
                    <rect id="Rectangle-13-Copy-6" x="340" y="0.55528184" width="32.3600006" height="169.298659" rx="5"></rect>
                    <rect id="Rectangle-13-Copy-10" x="374" y="0.55528184" width="32.3600006" height="169.298659" rx="5"></rect>
                    <rect id="Rectangle-13-Copy-9" x="408" y="0.55528184" width="32.3600006" height="169.298659" rx="5"></rect>
                    <rect id="Rectangle-13-Copy-8" x="442" y="0.55528184" width="32.3600006" height="169.298659" rx="5"></rect>
                    <rect id="Rectangle-13-Copy-7" x="476" y="0.55528184" width="32.3600006" height="169.298659" rx="5"></rect>
                    <rect id="Rectangle-13-Copy-6" x="510" y="0.55528184" width="32.3600006" height="169.298659" rx="5"></rect>
                    <rect id="Rectangle-13-Copy-6" x="544" y="0.55528184" width="32.3600006" height="169.298659" rx="5"></rect>
                </g>
                <g id="Group" fill="#FFFFFF">
                    <rect id="Rectangle-13-Copy-6" x="0" y="0.520703886" width="32.3600006" height="158.756262" rx="5"></rect>
                    <rect id="Rectangle-13-Copy-10" x="34" y="0.520703886" width="32.3600006" height="158.756262" rx="5"></rect>
                    <rect id="Rectangle-13-Copy-9" x="68" y="0.520703886" width="32.3600006" height="158.756262" rx="5"></rect>
                    <rect id="Rectangle-13-Copy-8" x="102" y="0.520703886" width="32.3600006" height="158.756262" rx="5"></rect>
                    <rect id="Rectangle-13-Copy-7" x="136" y="0.520703886" width="32.3600006" height="158.756262" rx="5"></rect>
                    <rect id="Rectangle-13-Copy-6" x="170" y="0.520703886" width="32.3600006" height="158.756262" rx="5"></rect>
                    <rect id="Rectangle-13-Copy-10" x="204" y="0.520703886" width="32.3600006" height="158.756262" rx="5"></rect>
                    <rect id="Rectangle-13-Copy-9" x="238" y="0.520703886" width="32.3600006" height="158.756262" rx="5"></rect>
                    <rect id="Rectangle-13-Copy-8" x="272" y="0.520703886" width="32.3600006" height="158.756262" rx="5"></rect>
                    <rect id="Rectangle-13-Copy-7" x="306" y="0.520703886" width="32.3600006" height="158.756262" rx="5"></rect>
                    <rect id="Rectangle-13-Copy-6" x="340" y="0.520703886" width="32.3600006" height="158.756262" rx="5"></rect>
                    <rect id="Rectangle-13-Copy-10" x="374" y="0.520703886" width="32.3600006" height="158.756262" rx="5"></rect>
                    <rect id="Rectangle-13-Copy-9" x="408" y="0.520703886" width="32.3600006" height="158.756262" rx="5"></rect>
                    <rect id="Rectangle-13-Copy-8" x="442" y="0.520703886" width="32.3600006" height="158.756262" rx="5"></rect>
                    <rect id="Rectangle-13-Copy-7" x="476" y="0.520703886" width="32.3600006" height="158.756262" rx="5"></rect>
                    <rect id="Rectangle-13-Copy-6" x="510" y="0.520703886" width="32.3600006" height="158.756262" rx="5"></rect>
                    <rect id="Rectangle-13-Copy-6" x="544" y="0.520703886" width="32.3600006" height="158.756262" rx="5"></rect>
                </g>
                <g id="Group-3" transform="translate(431.000000, 1.000000)">
                    <g id="Group-2" transform="translate(102.000000, 0.000000)">
                        <rect id="Rectangle" fill="#2F2F33" x="0" y="0" width="20" height="92" rx="4"></rect>
                        <rect id="Rectangle-2" fill="#47474C" x="2" y="0" width="16" height="87" rx="4"></rect>
                    </g>
                    <g id="Group-2" transform="translate(68.000000, 0.000000)">
                        <rect id="Rectangle" fill="#2F2F33" x="0" y="0" width="20" height="92" rx="4"></rect>
                        <rect id="Rectangle-2" fill="#47474C" x="2" y="0" width="16" height="87" rx="4"></rect>
                    </g>
                    <g id="Group-2">
                        <rect id="Rectangle" fill="#2F2F33" x="0" y="0" width="20" height="92" rx="4"></rect>
                        <rect id="Rectangle-2" fill="#47474C" x="2" y="0" width="16" height="87" rx="4"></rect>
                    </g>
                </g>
                <g id="Group-3" transform="translate(295.000000, 1.000000)">
                    <g id="Group-2" transform="translate(102.000000, 0.000000)">
                        <rect id="Rectangle" fill="#2F2F33" x="0" y="0" width="20" height="92" rx="4"></rect>
                        <rect id="Rectangle-2" fill="#47474C" x="2" y="0" width="16" height="87" rx="4"></rect>
                    </g>
                    <g id="Group-2" transform="translate(68.000000, 0.000000)">
                        <rect id="Rectangle" fill="#2F2F33" x="0" y="0" width="20" height="92" rx="4"></rect>
                        <rect id="Rectangle-2" fill="#47474C" x="2" y="0" width="16" height="87" rx="4"></rect>
                    </g>
                    <g id="Group-2">
                        <rect id="Rectangle" fill="#2F2F33" x="0" y="0" width="20" height="92" rx="4"></rect>
                        <rect id="Rectangle-2" fill="#47474C" x="2" y="0" width="16" height="87" rx="4"></rect>
                    </g>
                </g>
                <g id="Group-3" transform="translate(159.000000, 1.000000)">
                    <g id="Group-2" transform="translate(102.000000, 0.000000)">
                        <rect id="Rectangle" fill="#2F2F33" x="0" y="0" width="20" height="92" rx="4"></rect>
                        <rect id="Rectangle-2" fill="#47474C" x="2" y="0" width="16" height="87" rx="4"></rect>
                    </g>
                    <g id="Group-2" transform="translate(34.000000, 0.000000)">
                        <rect id="Rectangle" fill="#2F2F33" x="0" y="0" width="20" height="92" rx="4"></rect>
                        <rect id="Rectangle-2" fill="#47474C" x="2" y="0" width="16" height="87" rx="4"></rect>
                    </g>
                    <g id="Group-2">
                        <rect id="Rectangle" fill="#2F2F33" x="0" y="0" width="20" height="92" rx="4"></rect>
                        <rect id="Rectangle-2" fill="#47474C" x="2" y="0" width="16" height="87" rx="4"></rect>
                    </g>
                </g>
                <g id="Group-3" transform="translate(23.000000, 1.000000)">
                    <g id="Group-2" transform="translate(102.000000, 0.000000)">
                        <rect id="Rectangle" fill="#2F2F33" x="0" y="0" width="20" height="92" rx="4"></rect>
                        <rect id="Rectangle-2" fill="#47474C" x="2" y="0" width="16" height="87" rx="4"></rect>
                    </g>
                    <g id="Group-2" transform="translate(34.000000, 0.000000)">
                        <rect id="Rectangle" fill="#2F2F33" x="0" y="0" width="20" height="92" rx="4"></rect>
                        <rect id="Rectangle-2" fill="#47474C" x="2" y="0" width="16" height="87" rx="4"></rect>
                    </g>
                    <g id="Group-2">
                        <rect id="Rectangle" fill="#2F2F33" x="0" y="0" width="20" height="92" rx="4"></rect>
                        <rect id="Rectangle-2" fill="#47474C" x="2" y="0" width="16" height="87" rx="4"></rect>
                    </g>
                </g>
            </g>
        </g>
    </g>
</svg>