<?xml version="1.0" encoding="UTF-8" standalone="no"?>
<svg width="24px" height="23px" viewBox="0 0 24 23" version="1.1" xmlns="http://www.w3.org/2000/svg" xmlns:xlink="http://www.w3.org/1999/xlink">
    <!-- Generator: Sketch 39.1 (31720) - http://www.bohemiancoding.com/sketch -->
    <title>Group 5</title>
    <desc>Created with Sketch.</desc>
    <defs></defs>
    <g id="Page-1" stroke="none" stroke-width="1" fill="none" fill-rule="evenodd">
        <g id="FirstPage" transform="translate(-337.000000, -492.000000)" fill="#2F2F33">
            <g id="Group-5" transform="translate(349.860422, 503.921082) rotate(15.000000) translate(-349.860422, -503.921082) translate(338.860422, 491.421082)">
                <path d="M7.65232448,24.0267441 C11.1130428,23.4786202 13.6224534,20.8913102 13.5415568,18.0944575 C13.5359746,17.9014664 13.518059,17.7074776 13.4872714,17.5130922 C13.0103055,14.5016477 9.62459612,12.5353927 5.92507797,13.1213389 C2.22555981,13.707285 -0.386834907,16.6235463 0.0901310467,19.6349908 C0.567097001,22.6464353 3.95280633,24.6126903 7.65232448,24.0267441" id="Oval"></path>
                <path d="M11.8710419,0.852263345 C11.8710419,0.381571297 12.2484027,1.70530257e-13 12.7212124,1.70530257e-13 L12.7212124,1.70530257e-13 C13.1907486,1.70530257e-13 13.5713829,0.387962807 13.5713829,0.845108732 L13.5713829,17.0418649 L13.5713829,17.9720088 L13.322493,18.7037511 L12.6378441,18.7037511 L11.8710419,18.7037511 L11.8710419,0.852263345 Z" id="Rectangle-13"></path>
                <path d="M20.7698881,11.0522166 C21.1922395,10.6336629 21.9320645,9.26653189 19.8448602,6.08401952 C16.8129587,1.46105864 13.4677961,1.75342577 13.4677961,1.75342577 L12.6211619,6.31511848 C12.6211619,6.31511848 15.5068052,6.33850536 17.4777969,7.43104389 C19.3560078,8.4721532 21.2369339,10.5306967 20.7697814,11.0522166 L20.7698881,11.0522166 Z" id="Combined-Shape"></path>
            </g>
        </g>
    </g>
</svg>