<?xml version="1.0" encoding="UTF-8" standalone="no"?>
<svg width="24px" height="33px" viewBox="0 0 24 33" version="1.1" xmlns="http://www.w3.org/2000/svg" xmlns:xlink="http://www.w3.org/1999/xlink">
    <!-- Generator: Sketch 39.1 (31720) - http://www.bohemiancoding.com/sketch -->
    <title>Group 5</title>
    <desc>Created with Sketch.</desc>
    <defs></defs>
    <g id="Page-1" stroke="none" stroke-width="1" fill="none" fill-rule="evenodd">
        <g id="FirstPage" transform="translate(-1041.000000, -193.000000)" fill="#2F2F33">
            <g id="Group-5" transform="translate(1052.534657, 208.595317) rotate(-15.000000) translate(-1052.534657, -208.595317) translate(1038.534657, 193.095317)">
                <path d="M9.82319822,30.8428466 C14.2656814,30.1392264 17.486982,26.8179273 17.3831359,23.2276406 C17.3759702,22.9799003 17.3529721,22.7308791 17.3134504,22.4813489 C16.7011749,18.6155932 12.35498,16.0915351 7.60595235,16.8437071 C2.85692475,17.5958792 -0.496575385,21.3394493 0.115700156,25.2052049 C0.727975697,29.0709605 5.07417062,31.5950187 9.82319822,30.8428466" id="Oval"></path>
                <path d="M15.2387158,1.09404035 C15.2387158,0.48981855 15.7231293,-5.68434189e-14 16.3300696,-5.68434189e-14 L16.3300696,-5.68434189e-14 C16.9328076,-5.68434189e-14 17.4214234,0.498023256 17.4214234,1.08485606 L17.4214234,21.87644 L17.4214234,23.0704547 L17.1019263,24.0097835 L16.2230507,24.0097835 L15.2387158,24.0097835 L15.2387158,1.09404035 Z" id="Rectangle-13"></path>
                <path d="M26.6620591,14.1875994 C27.2042267,13.650307 28.1539312,11.8953371 25.4746118,7.80998374 C21.5825958,1.87554366 17.2884502,2.25085188 17.2884502,2.25085188 L16.2016359,8.10664273 C16.2016359,8.10664273 19.9059021,8.1366642 22.4360407,9.53914295 C24.8470778,10.8756026 27.2616003,13.5181305 26.6619221,14.1875994 L26.6620591,14.1875994 Z" id="Combined-Shape"></path>
            </g>
        </g>
    </g>
</svg>